<svg id="Layer_1" data-name="Layer 1" xmlns="http://www.w3.org/2000/svg" viewBox="0 0 410.34 206.48"><defs><style>.cls-1{fill:#0797e5;}.cls-2{fill:#0cd47a;}</style></defs><path class="cls-1" d="M218.51,300.92a32.91,32.91,0,0,0-28-32.39c-3.31-.52-6.3-1.3-8-4.58a7.89,7.89,0,0,1,6.4-11.52,10.54,10.54,0,0,0,9.13-6.19c.52-1,1.07-2.05,1.68-3a5,5,0,0,1,6.39-2.25c2.24.82,4.46,1.74,6.63,2.73a5,5,0,0,1,3,5.84,4.41,4.41,0,0,1-.16.72c-4,10.41.24,13,8.34,20,2.27,2,5.35,1.8,8.29,1,8-2.3,8.61-2,11.79,5.71.35.84.72,1.67,1,2.52,1.08,2.89.43,5.38-2.39,6.69-10.26,4.77-9,9.18-8.44,20,.19,3.23,2.62,5.35,5.44,6.91,7.08,3.91,7.24,4.44,4.21,12q-.6,1.49-1.29,2.94a4.89,4.89,0,0,1-5.61,3,9.87,9.87,0,0,1-1.19-.3c-9.18-2.35-15.56.47-20,8.87a10.42,10.42,0,0,0-.58,8.16c2.22,7.67,1.87,8.34-5.57,11.44-1,.42-2,.84-3,1.2a4.93,4.93,0,0,1-6.23-2.08c-.81-1.24-1.52-2.55-2.24-3.85a9.74,9.74,0,0,0-9.34-5.32c-1.07,0-2.15.09-3.22,0a8.05,8.05,0,0,1,.47-16.1c15.44-.11,27.79-10,31.33-25.08C218,305.68,218.16,303.28,218.51,300.92Z" transform="translate(-94.83 -196.76)"/><path class="cls-2" d="M175.58,369.24c-3,0-5.94.1-8.91,0-5.2-.21-10.12-4.2-10.74-9.34-1.74-14.42-7.77-27.35-13.5-40.42-2.71-6.17-6.19-12.17-7.81-18.62-8-32,16-63.52,48.91-64.74,3.5-.13,5.82,1.6,6,4.47s-2,5-5.7,5.07c-28.44.86-48.51,30.23-39,57.06a42.38,42.38,0,0,0,2.22,5c6.67,13.12,12.53,26.55,16.37,40.79a58.81,58.81,0,0,1,1.49,8.26c.28,2.21,1.27,3.17,3.54,3.14,5.37-.07,10.73,0,16.1,0a4.66,4.66,0,0,1,4.89,4,4.43,4.43,0,0,1-2.82,5,9.49,9.49,0,0,1-3.39.38c-2.56.05-5.12,0-7.68,0Z" transform="translate(-94.83 -196.76)"/><path class="cls-1" d="M210.74,307.2l-1.94,5.73c-9-2-11.72,2.09-10.18,10-1.33.62-2.35,1.14-3.4,1.58-1.45.6-2.45.15-3.3-1.21-2.9-4.64-8.09-4.61-11,.05a18.23,18.23,0,0,0-1.09,2.56l-1.07-.85-4.45-1.93c-.45-2.91,1.49-5.76-1.26-8.34-2.48-2.31-4.79-3-7.68-1.58-2.38-.69-2.84-2.74-3-4.49-.08-.89,1.17-2.18,2.12-2.83,3.42-2.35,3.44-8.16-.19-10.21-1.88-1.06-2.6-2.14-1.74-4.36s1.93-3.25,4.6-2.52c4.15,1.14,8.28-3.29,7-7.42-.67-2.23,0-3.33,2.07-4.18s3.45-1,4.72,1.26c2.17,3.88,8.1,3.84,10.42.07l1.45-2.31L198.3,278c.4,3.12-1.36,6,1.46,8.81s5.51,1.73,8.68,1.39a18.06,18.06,0,0,1,1.8,4,3.19,3.19,0,0,1-1.16,2.61c-4.85,3.42-4.74,8.37.39,11.49a5,5,0,0,1,.58.45Zm-24.43,6.6a13.1,13.1,0,0,0,13.16-13,13.16,13.16,0,1,0-26.31-.25A13,13,0,0,0,186.31,313.8Z" transform="translate(-94.83 -196.76)"/><path class="cls-1" d="M185.57,386.63c-7.52,0-15,0-22.54,0-3.61,0-5.69-1.8-5.64-4.76s2.15-4.64,5.57-4.65q22.78,0,45.57,0c3.15,0,5.27,2,5.28,4.69s-2,4.71-5.21,4.73c-7.68,0-15.36,0-23,0Z" transform="translate(-94.83 -196.76)"/><path class="cls-2" d="M185.61,402.91c-3.55,0-7.1,0-10.65,0-3.25,0-5.22-1.79-5.28-4.63s2-4.78,5.36-4.8q10.53,0,21.06,0c3.39,0,5.41,1.82,5.41,4.75s-2,4.65-5.49,4.68-6.94,0-10.41,0Z" transform="translate(-94.83 -196.76)"/><path class="cls-2" d="M123.9,218.14c1.45-.15,2.67,1.27,3.45,2.14,4.18,4.66,2,1.83,13.51,13.44,2,2,2.06,4.16.4,5.93s-4,1.62-5.92-.29c-4.58-4.52-9.11-9.09-13.64-13.65a4.31,4.31,0,0,1-1.52-3.26,3.36,3.36,0,0,1,.5-1.41C120.91,220.62,122.2,218.32,123.9,218.14Z" transform="translate(-94.83 -196.76)"/><path class="cls-2" d="M247.06,218.18a4,4,0,0,1,3.24,2.53,4.89,4.89,0,0,1-.19,4.08c-.84,1.54-2.39,2.69-3.67,4-3.49,3.51-7,7-10.5,10.49-2,2-4.23,2.08-5.93.46s-1.67-4,.43-6.09c2.25-2.28,3.63-3.71,5.37-5.29.9-.83,4.35-4.05,7.95-8C244.75,219.26,245.71,218.16,247.06,218.18Z" transform="translate(-94.83 -196.76)"/><path class="cls-1" d="M181.65,210.63c0-3.13,0-6.27,0-9.4,0-2.7,1.59-4.44,3.91-4.47s3.94,1.67,4,4.4q.06,9.65,0,19.29c0,2.55-1.6,4.31-3.75,4.38-2.32.07-4.06-1.69-4.1-4.31C181.61,217.23,181.65,213.93,181.65,210.63Z" transform="translate(-94.83 -196.76)"/><path class="cls-1" d="M262.21,288c-3.13,0-6.26,0-9.39,0-2.77,0-4.43-1.52-4.44-3.89s1.69-3.95,4.39-4q9.51-.07,19,0c3,0,4.6,1.56,4.55,4s-1.71,3.81-4.74,3.83S265.34,288,262.21,288Z" transform="translate(-94.83 -196.76)"/><path class="cls-1" d="M108.77,288c-3.21,0-6.43,0-9.64,0-2.7-.05-4.36-1.66-4.3-4s1.69-3.81,4.28-3.83q9.63-.07,19.28,0c2.8,0,4.4,1.54,4.41,3.94s-1.65,3.88-4.39,3.92C115.2,288,112,288,108.77,288Z" transform="translate(-94.83 -196.76)"/><path class="cls-2" d="M241.53,400.94a20.8,20.8,0,0,1-9-6.83A18.64,18.64,0,0,1,229,383.23h16.79a8.09,8.09,0,0,0,2.49,5.49,8,8,0,0,0,5.53,1.89,8.66,8.66,0,0,0,5.54-1.62,5.38,5.38,0,0,0,2-4.47,5.29,5.29,0,0,0-1.61-4,13.3,13.3,0,0,0-4-2.58,65.23,65.23,0,0,0-6.69-2.31,72.76,72.76,0,0,1-10.24-3.87,18.79,18.79,0,0,1-6.82-5.72q-2.86-3.78-2.86-9.87,0-9,6.55-14.15t17.06-5.12q10.7,0,17.24,5.12t7,14.25H260a6.69,6.69,0,0,0-2.3-4.94,8.14,8.14,0,0,0-5.45-1.8,6.77,6.77,0,0,0-4.61,1.53,5.47,5.47,0,0,0-1.75,4.38,5.4,5.4,0,0,0,2.95,4.88,48.58,48.58,0,0,0,9.23,3.79,85.44,85.44,0,0,1,10.19,4.05,19.45,19.45,0,0,1,6.77,5.63,15,15,0,0,1,2.86,9.5,18.58,18.58,0,0,1-2.81,10.05,19.71,19.71,0,0,1-8.16,7.2,28,28,0,0,1-12.64,2.67A33.42,33.42,0,0,1,241.53,400.94Z" transform="translate(-94.83 -196.76)"/><path class="cls-2" d="M319,402.6,303.32,381V402.6H287.55V334.35h15.77v37.72l15.59-20.94h19.46L317,377l21.58,25.64Z" transform="translate(-94.83 -196.76)"/><path class="cls-2" d="M345.7,343.34a7.92,7.92,0,0,1-2.63-6,8,8,0,0,1,2.63-6.14,9.59,9.59,0,0,1,6.78-2.44,9.46,9.46,0,0,1,6.68,2.44,8,8,0,0,1,2.63,6.14,7.89,7.89,0,0,1-2.63,6,9.42,9.42,0,0,1-6.68,2.44A9.55,9.55,0,0,1,345.7,343.34Z" transform="translate(-94.83 -196.76)"/><rect class="cls-2" x="249.72" y="154.37" width="15.77" height="51.46"/><path class="cls-2" d="M387.52,334.35V402.6H371.75V334.35Z" transform="translate(-94.83 -196.76)"/><path class="cls-2" d="M414.73,334.35V402.6H399V334.35Z" transform="translate(-94.83 -196.76)"/><path class="cls-1" d="M324.23,301.71a12.14,12.14,0,0,1-1.62,16.36q-4,3.39-11.31,3.39H289.73v-46.3h20.85q7.05,0,11.05,3.23A11.71,11.71,0,0,1,323.47,294a11.15,11.15,0,0,1-5.7,3.76A10.76,10.76,0,0,1,324.23,301.71ZM301,293.89h7.39a6.54,6.54,0,0,0,4.25-1.22,4.38,4.38,0,0,0,1.49-3.59,4.47,4.47,0,0,0-1.49-3.63,6.38,6.38,0,0,0-4.25-1.26H301Zm12.7,17.18a4.56,4.56,0,0,0,1.55-3.72,4.78,4.78,0,0,0-1.62-3.83,6.62,6.62,0,0,0-4.45-1.38H301v10.22h8.31A6.68,6.68,0,0,0,313.71,311.07Z" transform="translate(-94.83 -196.76)"/><path class="cls-1" d="M349.43,286a12.73,12.73,0,0,1,6.6-1.75V296.2h-3.1q-4.23,0-6.34,1.81t-2.11,6.37v17.08H333.2v-36.8h11.28v6.13A14.85,14.85,0,0,1,349.43,286Z" transform="translate(-94.83 -196.76)"/><path class="cls-1" d="M362.26,279.08a5.66,5.66,0,0,1-1.88-4.32,5.76,5.76,0,0,1,1.88-4.39,6.85,6.85,0,0,1,4.85-1.74,6.76,6.76,0,0,1,4.78,1.74,5.76,5.76,0,0,1,1.88,4.39,5.66,5.66,0,0,1-1.88,4.32,6.72,6.72,0,0,1-4.78,1.75A6.81,6.81,0,0,1,362.26,279.08Zm10.45,5.58v36.8H361.43v-36.8Z" transform="translate(-94.83 -196.76)"/><path class="cls-1" d="M380.79,293a16.06,16.06,0,0,1,5.84-6.59,15.25,15.25,0,0,1,8.25-2.31,14.37,14.37,0,0,1,6.63,1.52,12,12,0,0,1,4.71,4.08V272.65H417.5v48.81H406.22v-5.27a11.5,11.5,0,0,1-4.51,4.22,14.26,14.26,0,0,1-6.83,1.58,15.11,15.11,0,0,1-8.25-2.34,16.2,16.2,0,0,1-5.84-6.66,24.34,24.34,0,0,1,0-20Zm23.09,3.37a7.59,7.59,0,0,0-5.7-2.44,7.67,7.67,0,0,0-5.71,2.4,9.13,9.13,0,0,0-2.34,6.63,9.35,9.35,0,0,0,2.34,6.7,7.86,7.86,0,0,0,11.41,0,10.65,10.65,0,0,0,0-13.32Z" transform="translate(-94.83 -196.76)"/><path class="cls-1" d="M446.5,285.71a11.65,11.65,0,0,1,4.51,4.16v-5.21h11.28V321.4a20.73,20.73,0,0,1-2,9.2,15.25,15.25,0,0,1-6.13,6.56,19.83,19.83,0,0,1-10.26,2.44q-8.17,0-13.26-3.85a14.55,14.55,0,0,1-5.8-10.46H436a5.35,5.35,0,0,0,2.51,3.33,9.18,9.18,0,0,0,4.88,1.22,7.7,7.7,0,0,0,5.58-2c1.38-1.34,2.07-3.49,2.07-6.43v-5.21a12.54,12.54,0,0,1-4.55,4.19,13.8,13.8,0,0,1-6.79,1.61,15.08,15.08,0,0,1-8.25-2.34,16.2,16.2,0,0,1-5.84-6.66,24.34,24.34,0,0,1,0-20,16.06,16.06,0,0,1,5.84-6.59,15.23,15.23,0,0,1,8.25-2.31A14.26,14.26,0,0,1,446.5,285.71Zm2.17,10.69A7.59,7.59,0,0,0,443,294a7.67,7.67,0,0,0-5.71,2.4,9.13,9.13,0,0,0-2.34,6.63,9.35,9.35,0,0,0,2.34,6.7,7.86,7.86,0,0,0,11.41,0,10.65,10.65,0,0,0,0-13.32Z" transform="translate(-94.83 -196.76)"/><path class="cls-1" d="M505,305.76H479.44a7.73,7.73,0,0,0,2.21,5.25,6.75,6.75,0,0,0,4.79,1.81,5.92,5.92,0,0,0,5.87-3.56h12a16.29,16.29,0,0,1-3.33,6.53,16.63,16.63,0,0,1-6,4.55,19.41,19.41,0,0,1-8.12,1.65,19.74,19.74,0,0,1-9.63-2.31,16.48,16.48,0,0,1-6.6-6.59,20.4,20.4,0,0,1-2.37-10,20.62,20.62,0,0,1,2.34-10,16.22,16.22,0,0,1,6.57-6.59,21.37,21.37,0,0,1,19.19-.07,16.14,16.14,0,0,1,6.5,6.4,19.43,19.43,0,0,1,2.34,9.7A29.14,29.14,0,0,1,505,305.76Zm-11.34-6.26a5.79,5.79,0,0,0-2-4.62,7.3,7.3,0,0,0-4.95-1.71,7.17,7.17,0,0,0-4.78,1.64,7.35,7.35,0,0,0-2.41,4.69Z" transform="translate(-94.83 -196.76)"/></svg>